<svg id="Layer_1" enable-background="new 0 0 511.998 511.998" height="512" viewBox="0 0 511.998 511.998" width="512" xmlns="http://www.w3.org/2000/svg"><g><path d="m481.998 408.999v.996c0 15.229-12.389 27.617-27.617 27.617h-51.843v-48.136h-30v48.136h-121.893v-48.136h-30v48.136h-74.153v30h307.89c31.77 0 57.617-25.847 57.617-57.617v-.996z" fill="#ece6f2"/><path d="m481.998 408.999v.996c0 15.229-12.389 27.617-27.617 27.617h-51.843v-48.136h-30v48.136h-121.893v-48.136h-15v78.136h218.737c31.77 0 57.617-25.847 57.617-57.617v-.996z" fill="#cfcfe6"/><g><path d="m220.645 59.386h30v60.134h-30z" fill="#4f4540"/></g><path d="m235.645 59.386h15v60.134h-15z" fill="#2e2e2e"/><g><path d="m40.379 44.386h390.53v30h-390.53z" fill="#63544f"/></g><path d="m274.427 104.52h-77.566l-31.306 83.072h140.18z" fill="#63544f"/><path d="m274.427 104.52h-38.782v83.072h70.09z" fill="#4f4540"/><path d="m447.374 293.7h-91.165c-17.435 0-31.62-14.185-31.62-31.62v-83.958l-30-20.53h-222.455l-19.75-37.581h-52.384v147.587h49.591l19.75-20.002h64.979l21.873 94.046c8.605 36.996 41.143 62.835 79.126 62.835h152.22c44.641 0 80.987-36.193 81.237-80.776z" fill="#5e69e2"/><path d="m447.373 293.7h-91.165c-17.435 0-31.62-14.185-31.62-31.62v-83.958l-30-20.53h-58.945v246.885h151.894c44.641 0 80.987-36.193 81.237-80.776z" fill="#524798"/><g><path d="m220.645 250h30v30.002h-30z" fill="#ffec29"/></g><path d="m356.209 323.7h112.567c.001-.154.001-.308.001-.462v-8.505c0-86.648-70.493-157.142-157.141-157.142h-17.047v104.489c0 33.978 27.643 61.62 61.62 61.62z" fill="#fff5f5"/><path d="m356.209 323.7h112.567c.001-.154.001-.308.001-.462v-8.505c0-86.648-70.493-157.142-157.141-157.142h-17.047v104.489c0 33.978 27.643 61.62 61.62 61.62z" fill="#ece6f2"/><path d="m235.645 44.386h195.265v30h-195.265z" fill="#4f4540"/><path d="m235.645 250h15v30.002h-15z" fill="#ffd321"/></g></svg>