<svg id="Layer_1" enable-background="new 0 0 511.973 511.973" height="512" viewBox="0 0 511.973 511.973" width="512" xmlns="http://www.w3.org/2000/svg"><g><g><path d="m356.091 109.23h-52.09v-30h37.09z" fill="#63544f"/></g><g><path d="m356.091 109.23h-52.09v-30h37.09z" fill="#4f4540"/></g><circle cx="437.962" cy="384.779" fill="#63544f" r="59.011"/><circle cx="437.962" cy="384.779" fill="#4f4540" r="59.011"/><path d="m437.962 458.79c-40.81 0-74.011-33.201-74.011-74.011 0-40.811 33.201-74.012 74.011-74.012s74.011 33.201 74.011 74.012c0 40.81-33.202 74.011-74.011 74.011zm0-118.022c-24.268 0-44.011 19.743-44.011 44.012 0 24.268 19.743 44.011 44.011 44.011s44.011-19.743 44.011-44.011c0-24.269-19.744-44.012-44.011-44.012z" fill="#4f4540"/><path d="m437.962 458.79c-40.81 0-74.011-33.201-74.011-74.011 0-40.811 33.201-74.012 74.011-74.012s74.011 33.201 74.011 74.012c0 40.81-33.202 74.011-74.011 74.011zm0-118.022c-24.268 0-44.011 19.743-44.011 44.012 0 24.268 19.743 44.011 44.011 44.011s44.011-19.743 44.011-44.011c0-24.269-19.744-44.012-44.011-44.012z" fill="#2e2e2e"/><g><path d="m385.815 285.733h30.001v112.978h-30.001z" fill="#cfcfe6" transform="matrix(.753 -.658 .658 .753 -126.191 347.977)"/></g><g><path d="m385.815 285.733h30.001v112.978h-30.001z" fill="#bbbbd2" transform="matrix(.753 -.658 .658 .753 -126.191 347.977)"/></g><g><path d="m27.567 123.317h30v82.083h-30z" fill="#63544f"/></g><path d="m183.444 293.099c-21.626 0-39.22-17.594-39.22-39.22v-11.88l-59.089-51.599h-85.135v172.997l178.024 36.382h47.961l30-20.001v-86.679z" fill="#4793ff"/><path d="m148.023 384.779c0 32.591-26.42 59.011-59.011 59.011s-59.011-26.42-59.011-59.011z" fill="#63544f"/><path d="m89.012 458.79c-40.81 0-74.012-33.201-74.012-74.011h30c0 24.268 19.743 44.011 44.011 44.011s44.011-19.743 44.011-44.011h30c.001 40.81-33.2 74.011-74.01 74.011z" fill="#4f4540"/><path d="m134.025 233.096v20.783c0 38.168 31.052 69.22 69.22 69.22h52.74v-90.003z" fill="#4f4540"/><path d="m387.415 79.23h-46.324v110.168h106.462l20.001-30.028c0-44.189-35.95-80.14-80.139-80.14z" fill="#fff5f5"/><path d="m387.415 79.23h-46.324v110.168h106.462l20.001-30.028c0-44.189-35.95-80.14-80.139-80.14z" fill="#ece6f2"/><path d="m353.253 159.398c-70.176 0-127.268 57.093-127.268 127.269v113.112h112.972v-15c0-52.97 43.094-96.064 96.064-96.064h32.532v-49.533l-10.001-15 10.001-15v-49.783h-114.3z" fill="#5e69e2"/><path d="m467.554 159.398h-114.3c-38.972 0-73.903 17.614-97.267 45.293v195.087h82.971v-15c0-52.97 43.094-96.064 96.064-96.064h32.532v-49.533l-10.001-15 10.001-15z" fill="#524798"/><path d="m89.012 274.386c-49.081 0-89.012 39.93-89.012 89.011v36.382h178.024v-36.382c0-49.081-39.931-89.011-89.012-89.011z" fill="#5e69e2"/><path d="m42.567 53.183c-23.471 0-42.567 19.095-42.567 42.567v42.567h85.135v-42.567c0-23.472-19.095-42.567-42.568-42.567z" fill="#ff5c4a"/><g><path d="m422.422 209.182h45.132v30h-45.132z" fill="#ffec29"/></g><g><path d="m326.089 224.183h30.002v30h-30.002z" fill="#ffec29"/></g><g><path d="m422.422 209.182h45.132v30h-45.132z" fill="#ffd321"/></g><g><path d="m326.089 224.183h30.002v30h-30.002z" fill="#ffd321"/></g></g></svg>