<svg id="Layer_1" enable-background="new 0 0 512 512" height="512" viewBox="0 0 512 512" width="512" xmlns="http://www.w3.org/2000/svg"><g><path d="m220.206 82.261-10 35.794 10 35.793h71.588l10-35.793-10-35.794z" fill="#fff5f5"/><path d="m301.794 118.055-10-35.794h-35.794v71.587h35.794z" fill="#ece6f2"/><path d="m184.413 82.261c-19.768 0-35.794 16.025-35.794 35.793 0 19.768 16.025 35.794 35.794 35.794h35.794v-71.587z" fill="#4793ff"/><path d="m327.587 82.261h-35.794v71.587h35.794c19.768 0 35.794-16.025 35.794-35.794 0-19.768-16.026-35.793-35.794-35.793z" fill="#ff365c"/><path d="m327.587 82.261h-35.794v71.587h35.794c19.768 0 35.794-16.025 35.794-35.794 0-19.768-16.026-35.793-35.794-35.793z" fill="#e51959"/><path d="m74.455 279.253 32.765-125.405h297.56l32.765 125.405z" fill="#fff5f5"/><path d="m404.78 153.848h-148.78v125.405h181.545z" fill="#ece6f2"/><path d="m454.164 223.616-10.987 17.857-26.813-102.625h-320.728l-26.813 102.625-10.987-17.857h-43.835v30h27.07l20.609 33.497 12.776-7.86 14.512 3.792 29.837-114.197h274.39l29.837 114.197 14.512-3.792 12.776 7.86 20.609-33.497h27.07v-30z" fill="#5e69e2"/><path d="m423.032 283.045 14.512-3.792 12.776 7.86 20.609-33.497h27.07v-30h-43.835l-10.987 17.857-26.813-102.625h-160.364v30h137.195z" fill="#524798"/><path d="m409.276 324.727c-9.736 0-17.657-7.921-17.657-17.658v-22.815l-15.004-20.001h-241.23l-14.999 20.001v22.815c0 9.737-7.921 17.658-17.657 17.658h-68.726l-20.001 14.999v86.176h195.998v-42.003h92v42.003h195.999v-86.176l-20.001-14.999z" fill="#4793ff"/><path d="m477.997 324.727h-68.72c-9.736 0-17.657-7.921-17.657-17.658v-22.815l-15.004-20.001h-120.616v119.646h46v42.003h195.999v-86.176z" fill="#5e69e2"/><path d="m180 353.899h151.999v72.003h-151.999z" fill="#fff5f5"/><path d="m256 353.899h76v72.003h-76z" fill="#ece6f2"/><path d="m46.426 425.904h90.003v70.815h-90.003z" fill="#4f4540"/><path d="m375.571 425.904h90.003v70.815h-90.003z" fill="#4f4540"/><path d="m375.571 425.904h90.003v70.815h-90.003z" fill="#2e2e2e"/><g><path d="m240.999 15.281h30.002v30h-30.002z" fill="#ffec29"/></g><g><path d="m321.004 25.282h30.002v30h-30.002z" fill="#ffec29"/></g><g><path d="m160.994 25.282h30.002v30h-30.002z" fill="#ffec29"/></g><g><path d="m0 410.903h512v30h-512z" fill="#63544f"/></g><path d="m14.002 324.707v15.019h73.726c26.278 0 47.657-21.379 47.657-47.658v-27.815h-60.929c-33.335 0-60.454 27.119-60.454 60.454z" fill="#ffec29"/><path d="m497.998 324.707v15.019h-73.726c-26.278 0-47.657-21.379-47.657-47.658v-27.815h60.929c33.335 0 60.454 27.119 60.454 60.454z" fill="#ffec29"/><path d="m497.998 324.707v15.019h-73.726c-26.278 0-47.657-21.379-47.657-47.658v-27.815h60.929c33.335 0 60.454 27.119 60.454 60.454z" fill="#ffd321"/><g><path d="m321.004 25.282h30.002v30h-30.002z" fill="#ffd321"/></g><path d="m256 15.281h15.001v30h-15.001z" fill="#ffd321"/><path d="m256 410.903h256v30h-256z" fill="#4f4540"/></g></svg>