<svg id="Layer_1" enable-background="new 0 0 511.999 511.999" height="512" viewBox="0 0 511.999 511.999" width="512" xmlns="http://www.w3.org/2000/svg"><g><path d="m256 88.212c-87.078 0-157.922 70.844-157.922 157.922v197.487h315.844v-197.486c-.001-87.079-70.844-157.923-157.922-157.923z" fill="#ff5c4a"/><path d="m413.921 246.135c0-87.079-70.844-157.922-157.922-157.922v355.41h157.922z" fill="#ff365c"/><path d="m256 230.539c-35.843 0-65.003 29.16-65.003 65.003v148.081h130.006v-148.081c-.001-35.843-29.161-65.003-65.003-65.003z" fill="#ff365c"/><path d="m321.002 295.542c0-35.843-29.16-65.003-65.003-65.003v213.083h65.003z" fill="#e51959"/><path d="m68.076 413.622h375.848v83.376h-375.848z" fill="#4f4540"/><path d="m256 413.622h187.924v83.376h-187.924z" fill="#2e2e2e"/><g><path d="m45.586 481.999h420.826v30h-420.826z" fill="#63544f"/></g><g><path d="m40.588 115.708h30v49.438h-30z" fill="#ffbb32" transform="matrix(.5 -.866 .866 .5 -93.82 118.354)"/></g><g><path d="m125.292 31.004h30v49.438h-30z" fill="#ffbb32" transform="matrix(.866 -.5 .5 .866 -9.066 77.61)"/></g><g><path d="m241 0h30v49.438h-30z" fill="#ffbb32"/></g><g><path d="m346.988 40.723h49.438v30h-49.438z" fill="#ffbb32" transform="matrix(.5 -.866 .866 .5 137.595 349.769)"/></g><g><path d="m431.693 125.427h49.438v30h-49.438z" fill="#ffbb32" transform="matrix(.866 -.5 .5 .866 -9.066 247.022)"/></g><g><path d="m346.988 40.723h49.438v30h-49.438z" fill="#ff8659" transform="matrix(.5 -.866 .866 .5 137.595 349.769)"/></g><g><path d="m431.693 125.427h49.438v30h-49.438z" fill="#ff8659" transform="matrix(.866 -.5 .5 .866 -9.066 247.022)"/></g><path d="m256 481.999h210.413v30h-210.413z" fill="#4f4540"/><path d="m256 0h15v49.438h-15z" fill="#ff8659"/></g></svg>